<svg xmlns="http://www.w3.org/2000/svg" width="250" height="163" fill="none" viewBox="0 0 250 163">
<!-- SVG created with Arrow, by QuiverAI (https://quiver.ai) -->
  <path d="m249.9 0h-249.8v163h249.8v-163z" fill="url(#paint0_linear_2_119)"/>
  <path d="m125.2 33.31-35.69-26.75v46.4h6.62v-31.89l29.07 21.05 28.52-21.05v31.89h7.94v-46.4l-36.46 26.75z" fill="url(#paint1_linear_2_119)"/>
  <path d="m102.1 31.71v9.25l18.08 12v40.27l4.9 2.96 5.1-3.82v-2.44h8.75v-4.51h-5.85v-4.51h5.85v-5.18h-9.55v-22.49l18.47-12.28v-8.05l-22.97 14.7-22.78-15.9zm24.08 63.73h-1.03v-39.63h1.03v39.63z" fill="url(#paint2_linear_2_119)"/>
  <path d="m7.91 112.5h5.5l9.78 20.22 10.63-20.22h6.09v0.47c-1.13 0.43-1.22 1.65-1.22 3.15l-0.14 22.69c0 2.44 0.09 3.84 1.03 4.74v0.42h-6.13v-0.42c0.94-0.52 1.03-2.11 1.03-5.31v-20.76l-11.66 20.9h-1.13l-10.53-20.2 0.09 20.91c0 2.35 0.14 3.7 0.99 4.46v0.42h-4.38v-0.42c0.85-0.66 0.95-2.11 0.95-4.79l0.09-21.66c0-2.12-0.38-3.38-0.99-4.13v-0.47z" fill="url(#paint3_linear_2_119)"/>
  <path d="m43.89 134.4c0-7.48 5.78-10.96 10.94-10.96 6.23 0 10.52 4.23 10.52 10.87 0 7.46-5.78 10.75-10.75 10.75-6.38 0-10.71-4.14-10.71-10.66zm10.85 8.54c4.74 0 6.69-4.18 6.69-8.44 0-4.83-2.67-9.28-6.97-9.28-4.29 0-6.43 3.77-6.43 8.51 0 4.89 2.58 9.21 6.71 9.21z" fill="url(#paint3_linear_2_119)"/>
  <path d="m68.63 124.5 5.16-0.8v3.25c1.6-2.26 3.83-3.3 6.5-3.3 4.83 0 7.22 2.83 7.22 7.42v7.67c0 2.68 0.1 4.13 0.85 4.84v0.42h-4.92v-0.42c0.66-0.66 0.75-2.25 0.75-5.03v-6.41c0-3.68-1.32-5.94-4.92-5.94s-5.29 2.73-5.29 5.15v7.39c0 2.59 0.09 4.13 0.8 4.84v0.42h-5.41v-0.42c0.76-0.66 0.85-2.3 0.85-5.03v-9.62c0-2.17-0.47-3.16-1.59-3.86v-0.57z" fill="url(#paint3_linear_2_119)"/>
  <path d="m90.32 125.3v-0.52c3.32-0.8 5.27-4.23 6.26-7.98h0.8v7.23h6.61v1.88h-6.38l-0.09 11.25c-0.05 3.75 1.08 5.1 3.57 5.1 1.59 0 2.67-0.7 3.28-1.59l0.47 0.28c-0.57 2.02-2.16 3.9-5.63 3.9-4.09 0-5.4-2.73-5.4-6.86l0.1-12.69h-3.59z" fill="url(#paint3_linear_2_119)"/>
  <path d="m107.1 111.4 5.35-1.36v16.77c1.59-2.21 3.82-3.3 6.49-3.3 4.83 0 7.22 2.83 7.22 7.42v7.67c0 2.68 0.09 4.22 0.85 4.93v0.42h-5.41v-0.42c0.71-0.71 0.8-2.25 0.8-5.03v-6.41c0-3.68-1.31-5.94-4.91-5.94s-5.09 2.73-5.09 5.15v7.39c0 2.59 0.09 4.13 0.8 4.84v0.42h-5.6v-0.42c0.76-0.71 0.85-2.3 0.85-5.03v-21.65c0-2.17-0.28-3.9-1.36-4.84v-0.61h0.01z" fill="url(#paint3_linear_2_119)"/>
  <path d="m129.5 111.4 5.97-1.36v28.65c0 2.59 0.09 4.13 0.8 4.84v0.42h-5.99v-0.42c0.85-0.76 0.94-2.35 0.94-5.03v-21.65c0-2.17-0.47-3.9-1.73-4.84v-0.61h0.01z" fill="url(#paint3_linear_2_119)"/>
  <path d="m138.7 124h5.5v0.42c-0.56 0.33-0.33 1.32 0.8 4l5.35 11.25 5.02-11.72c0.89-2.17 0.52-3.06 0.14-3.43v-0.52h5.5v0.52c-0.94 0.37-1.69 1.41-2.68 3.71l-8.12 18.51c-2.49 5.63-5.16 8.36-10.51 8.59l-0.19-3.8c4.74 0 7.19-2.49 9.36-7.32l-7.47-16.26c-0.99-2.22-1.79-3.11-2.69-3.48v-0.47h-0.01z" fill="url(#paint3_linear_2_119)"/>
  <path d="m173.7 112.5h6.52v0.47c-0.85 0.43-0.94 1.78-0.94 3.66v11.09l12.88-12.45c1.4-1.4 1.59-1.97 1.26-2.49v-0.28h5.3v0.47c-1.5 0.52-2.77 1.78-4.73 3.71l-9.83 9.91 10.99 13.36c1.6 2.07 2.82 2.97 3.85 3.54v0.47h-6.33c-0.05-0.66-0.61-1.69-2.2-3.81l-10.44-12.1h-0.75v10.28c0 2.59 0.09 4.46 0.94 5.21v0.42h-6.28v-0.42c0.85-0.75 0.94-2.53 0.94-5.21v-20.2c0-2.68-0.09-4.46-1.17-5.16v-0.47h-0.01z" fill="url(#paint3_linear_2_119)"/>
  <path d="m203.6 134.2c0.28 5.64 3.7 8.03 7.3 8.03 3.04 0 5.22-1.36 6.71-3.1l0.66 0.38c-1.5 2.94-4.6 5.29-9.07 5.29-5.78 0-9.93-4.18-9.93-10.37 0-6.57 4.7-11.06 10.05-11.06 5.45 0 9 3.86 8.9 9.64l-0.61 0.94-14.01-0.14v0.39zm10.35-2.02c0.28-4.04-1.73-7.07-5.15-7.07-3.23 0-5.05 2.98-5.24 7.07h10.39z" fill="url(#paint3_linear_2_119)"/>
  <path d="m221.2 124h5.5v0.42c-0.57 0.33-0.33 1.32 0.8 4l5.35 11.25 5.02-11.72c0.89-2.17 0.51-3.06 0.14-3.43v-0.52h4.78v0.52c-0.94 0.37-1.69 1.41-2.68 3.71l-8.12 18.51c-2.49 5.63-5.16 8.36-10.51 8.59l0.09-3.8c4.74 0 6.82-2.49 8.99-7.32l-7.47-16.26c-0.99-2.22-1.79-3.11-1.89-3.48v-0.47z" fill="url(#paint3_linear_2_119)"/>
  <defs>
    <linearGradient id="paint0_linear_2_119" x1="-20.07" x2="264.7" y1="-19.26" y2="179.7" gradientUnits="userSpaceOnUse">
      <stop stop-color="#0A2233" offset="0"/>
      <stop stop-color="#0E283A" offset="1"/>
    </linearGradient>
    <linearGradient id="paint1_linear_2_119" x1="125.5" x2="125.5" y1="6.562" y2="52.96" gradientUnits="userSpaceOnUse">
      <stop stop-color="#D8DBDE" offset="0"/>
      <stop stop-color="#94979B" offset="1"/>
    </linearGradient>
    <linearGradient id="paint2_linear_2_119" x1="120.5" x2="120.5" y1="31.71" y2="96.19" gradientUnits="userSpaceOnUse">
      <stop stop-color="#BFC2C5" offset="0"/>
      <stop stop-color="#F0F1F2" offset=".526"/>
      <stop stop-color="#94979B" offset="1"/>
    </linearGradient>
    <linearGradient id="paint3_linear_2_119" x1="125.3" x2="125.3" y1="110" y2="145.3" gradientUnits="userSpaceOnUse">
      <stop stop-color="#F2F2F2" offset="0"/>
      <stop stop-color="#94979B" offset="1"/>
    </linearGradient>
  </defs>
</svg>