<svg xmlns="http://www.w3.org/2000/svg" viewBox="0 0 120 40" fill="none">
  <rect width="120" height="40" rx="6" fill="#000000"/>
  <g transform="translate(16, 8)">
    <path d="M16.6 3.7c-.9 1.1-2.4 1.9-3.8 1.8-.2-1.5.5-3.1 1.4-4.1.9-1.1 2.5-1.8 3.7-1.9.2 1.6-.5 3.1-1.3 4.2zm1.3 2.1c-2.1-.1-3.9 1.2-4.9 1.2s-2.5-1.1-4.2-1.1c-2.1 0-4.1 1.2-5.2 3.2-2.2 3.8-.6 9.5 1.6 12.6 1.1 1.5 2.3 3.2 4 3.2 1.6-.1 2.2-1 4.1-1s2.5 1 4.2 1 2.8-1.6 3.8-3.1c1.2-1.8 1.7-3.5 1.7-3.6 0 0-3.3-1.3-3.3-5 0-3.2 2.6-4.7 2.7-4.8-1.5-2.2-3.8-2.4-4.5-2.6z" fill="white"/>
  </g>
  <text x="72" y="26" text-anchor="middle" font-family="-apple-system, Arial, sans-serif" font-weight="600" font-size="15" fill="white">Pay</text>
</svg>
