<svg xmlns="http://www.w3.org/2000/svg" viewBox="0 0 120 40" fill="none">
  <rect width="120" height="40" rx="6" fill="#FFFFFF" stroke="#DADCE0" stroke-width="1"/>
  <g transform="translate(10, 8)">
    <path d="M11.2 12.5V18h-1.5V6h4c1 0 1.9.3 2.6 1 .7.7 1.1 1.5 1.1 2.5s-.4 1.9-1.1 2.5c-.7.7-1.6 1-2.6 1h-2.5zm0-5.1v3.7h2.6c.6 0 1.1-.2 1.5-.6.4-.4.6-.9.6-1.3 0-.5-.2-.9-.6-1.3-.4-.4-.9-.6-1.5-.6h-2.6z" fill="#3C4043"/>
    <path d="M22.5 10c1.1 0 2 .3 2.6.9.6.6 1 1.5 1 2.6V18h-1.4v-1.1c-.6.9-1.4 1.3-2.5 1.3-.9 0-1.7-.3-2.3-.8-.6-.5-.9-1.2-.9-2 0-.8.3-1.5.9-2 .6-.5 1.4-.7 2.5-.7.9 0 1.6.2 2.1.5v-.4c0-.6-.2-1.1-.7-1.5-.4-.4-1-.6-1.6-.6-.9 0-1.6.4-2.1 1.1l-1.2-.8c.8-1 1.8-1.5 3.1-1.5h.5zm-1.9 5.9c0 .4.2.8.5 1.1.4.3.8.4 1.3.4.7 0 1.3-.3 1.8-.8.5-.5.8-1.1.8-1.7-.5-.4-1.1-.6-2-.6-.6 0-1.2.2-1.6.5-.5.3-.8.7-.8 1.1z" fill="#3C4043"/>
    <path d="M33.4 10.2l-4.8 11h-1.5l1.8-3.9-3.2-7.1h1.6l2.3 5.4 2.3-5.4h1.5z" fill="#3C4043"/>
  </g>
  <g transform="translate(10, 6)">
    <circle cx="4.5" cy="5" r="3.5" fill="#4285F4"/>
    <path d="M4.5 2.5c.7 0 1.3.2 1.8.7l-1.3 1.3c-.1-.1-.3-.2-.5-.2-.6 0-1 .5-1 1s.4 1 1 1c.4 0 .7-.2.8-.5H4.5V4.5h1.9c0 .2.1.4.1.6 0 1.4-1 2.4-2 2.4-1.2 0-2.2-1-2.2-2.2S3.3 3 4.5 2.5z" fill="white" opacity="0.3"/>
  </g>
</svg>
